<?xml version="1.0" encoding="utf-8"?>
<!-- Generator: Adobe Illustrator 26.0.2, SVG Export Plug-In . SVG Version: 6.00 Build 0)  -->
<svg version="1.1"
	 id="svg7041" xmlns:cc="http://creativecommons.org/ns#" xmlns:dc="http://purl.org/dc/elements/1.1/" xmlns:inkscape="http://www.inkscape.org/namespaces/inkscape" xmlns:ns1="http://sozi.baierouge.fr" xmlns:rdf="http://www.w3.org/1999/02/22-rdf-syntax-ns#" xmlns:sodipodi="http://sodipodi.sourceforge.net/DTD/sodipodi-0.dtd" xmlns:svg="http://www.w3.org/2000/svg"
	 xmlns="http://www.w3.org/2000/svg" xmlns:xlink="http://www.w3.org/1999/xlink" x="0px" y="0px" viewBox="0 0 30 30"
	 style="enable-background:new 0 0 30 30;" xml:space="preserve">
<style type="text/css">
	.st0{fill:url(#path6189-3_00000179624179337604905150000006504776241989451137_);}
	.st1{fill:#F6AB00;}
	.st2{fill:url(#path6985_00000016059958669564663860000005000391164362795450_);}
	.st3{fill:url(#path6995_00000168101049959550970190000000826356136281796536_);}
</style>
<g>
	
		<radialGradient id="path6189-3_00000108283733737927816720000007371889781458699144_" cx="-194" cy="556.2711" r="12.5" gradientTransform="matrix(1.2 0 0 1.2 247.8 -652.4627)" gradientUnits="userSpaceOnUse">
		<stop  offset="0.9179" style="stop-color:#000000"/>
		<stop  offset="0.9428" style="stop-color:#353535"/>
		<stop  offset="0.9461" style="stop-color:#474747"/>
		<stop  offset="0.9545" style="stop-color:#707070"/>
		<stop  offset="0.9621" style="stop-color:#8E8E8E"/>
		<stop  offset="0.9687" style="stop-color:#A0A0A0"/>
		<stop  offset="0.9734" style="stop-color:#A6A6A6"/>
		<stop  offset="1" style="stop-color:#000000"/>
	</radialGradient>
	
		<path id="path6189-3" sodipodi:cx="-87.5" sodipodi:cy="62.5" sodipodi:rx="2.5" sodipodi:ry="2.5" sodipodi:type="arc" style="fill:url(#path6189-3_00000108283733737927816720000007371889781458699144_);" d="
		M30,15.1c0,8.3-6.7,15-15,15s-15-6.7-15-15s6.7-15,15-15S30,6.8,30,15.1z"/>
	
		<path id="path6983" sodipodi:cx="47.5" sodipodi:cy="21.5" sodipodi:rx="2.5" sodipodi:ry="2.5" sodipodi:type="arc" class="st1" d="
		M29.1,15.1c0,7.8-6.3,14.1-14.1,14.1S0.9,22.9,0.9,15.1S7.2,1,15,1S29.1,7.3,29.1,15.1z"/>
	
		<radialGradient id="path6985_00000059306116826833819920000002161562170246147767_" cx="59.1" cy="635.3481" r="14.1374" gradientTransform="matrix(1 0 0 1 -44.1 -620.2856)" gradientUnits="userSpaceOnUse">
		<stop  offset="0" style="stop-color:#FFFFFF"/>
		<stop  offset="1" style="stop-color:#F39800;stop-opacity:0"/>
	</radialGradient>
	
		<path id="path6985" sodipodi:cx="47.5" sodipodi:cy="21.5" sodipodi:rx="2.5" sodipodi:ry="2.5" sodipodi:type="arc" style="fill:url(#path6985_00000059306116826833819920000002161562170246147767_);" d="
		M29.1,15.1c0,7.8-6.3,14.1-14.1,14.1S0.9,22.9,0.9,15.1S7.2,1,15,1S29.1,7.3,29.1,15.1z"/>
	
		<radialGradient id="path6995_00000076591397324701751500000018338202456564355006_" cx="59.5" cy="634.9481" r="14.1374" gradientTransform="matrix(1 0 0 1 -44.5 -619.8856)" gradientUnits="userSpaceOnUse">
		<stop  offset="0" style="stop-color:#F08300;stop-opacity:0"/>
		<stop  offset="0.82" style="stop-color:#EB6100;stop-opacity:0.5"/>
		<stop  offset="1" style="stop-color:#F6AB00"/>
	</radialGradient>
	
		<path id="path6995" sodipodi:cx="47.5" sodipodi:cy="21.5" sodipodi:rx="2.5" sodipodi:ry="2.5" sodipodi:type="arc" style="fill:url(#path6995_00000076591397324701751500000018338202456564355006_);" d="
		M29.1,15.1c0,7.8-6.3,14.1-14.1,14.1S0.9,22.9,0.9,15.1S7.2,1,15,1S29.1,7.3,29.1,15.1z"/>
</g>
</svg>
